<svg xmlns="http://www.w3.org/2000/svg" width="3200" height="1600" viewBox="0 0 3200 1600" preserveAspectRatio="none">
    <defs>
        <linearGradient id="base" x1="0" y1="0" x2="1" y2="1">
            <stop offset="0" stop-color="#0f172a"/>
            <stop offset="0.48" stop-color="#115e59"/>
            <stop offset="1" stop-color="#0b3b4a"/>
        </linearGradient>
        <radialGradient id="titleGlow" cx="0.28" cy="0.08" r="0.46">
            <stop offset="0" stop-color="#38bdf8" stop-opacity="0.22"/>
            <stop offset="0.4" stop-color="#2dd4bf" stop-opacity="0.12"/>
            <stop offset="1" stop-color="#ffffff" stop-opacity="0"/>
        </radialGradient>
        <linearGradient id="headerWash" x1="0" y1="0" x2="1" y2="0">
            <stop offset="0" stop-color="#67e8f9" stop-opacity="0.12"/>
            <stop offset="1" stop-color="#ffffff" stop-opacity="0"/>
        </linearGradient>
        <linearGradient id="skylineFill" x1="0" y1="0" x2="1" y2="0">
            <stop offset="0" stop-color="#e0f2fe" stop-opacity="0.1"/>
            <stop offset="0.5" stop-color="#ccfbf1" stop-opacity="0.13"/>
            <stop offset="1" stop-color="#e0f2fe" stop-opacity="0.08"/>
        </linearGradient>
        <pattern id="softWaves" width="180" height="48" patternUnits="userSpaceOnUse">
            <path d="M-30 30 C18 8 58 8 106 30 C132 42 158 42 210 28" fill="none" stroke="#bae6fd" stroke-width="1.2" opacity="0.1"/>
        </pattern>
        <pattern id="groveTiles" width="190" height="90" patternUnits="userSpaceOnUse">
            <path d="M0 0 L95 34 L0 90 Z" fill="#ffffff" opacity="0.028"/>
            <path d="M95 34 L190 0 L190 90 Z" fill="#5eead4" opacity="0.03"/>
            <path d="M0 0 L95 34 L190 0" fill="none" stroke="#99f6e4" stroke-width="1.1" opacity="0.045"/>
        </pattern>
    </defs>
    <rect width="3200" height="1600" fill="url(#base)"/>
    <rect width="3200" height="1600" fill="url(#groveTiles)" opacity="0.72"/>
    <rect width="3200" height="1600" fill="url(#softWaves)" opacity="0.36"/>
    <rect x="0" y="0" width="2100" height="230" fill="url(#headerWash)"/>
    <ellipse cx="820" cy="72" rx="880" ry="230" fill="url(#titleGlow)"/>
    <g opacity="0.75">
        <path d="M0 114 C340 64 666 62 990 108 C1308 154 1648 154 1988 96 C2360 34 2780 40 3200 94" fill="none" stroke="#bae6fd" stroke-linecap="round" stroke-width="5" opacity="0.12"/>
        <path d="M1840 145 H2988 V164 H1840 Z" fill="url(#skylineFill)"/>
        <path d="M1910 145 V98 H1978 V145 Z" fill="url(#skylineFill)"/>
        <path d="M1996 145 V84 H2070 V145 Z" fill="url(#skylineFill)"/>
        <path d="M2098 145 V64 C2130 44 2174 44 2206 64 V145 Z" fill="url(#skylineFill)"/>
        <path d="M2240 145 V74 H2308 V145 Z" fill="url(#skylineFill)"/>
        <path d="M2348 145 V92 H2410 V145 Z" fill="url(#skylineFill)"/>
        <path d="M2470 145 V76 C2470 38 2502 16 2538 16 C2574 16 2606 38 2606 76 V145 Z" fill="url(#skylineFill)"/>
        <path d="M2448 145 H2628 V158 H2448 Z" fill="url(#skylineFill)"/>
        <path d="M2460 76 C2478 28 2510 6 2538 0 C2566 6 2598 28 2616 76" fill="none" stroke="#99f6e4" stroke-width="3" stroke-linecap="round" opacity="0.16"/>
        <path d="M2668 145 V78 L2718 34 L2768 78 V145 Z" fill="url(#skylineFill)"/>
        <path d="M2706 34 L2718 8 L2730 34" fill="none" stroke="#99f6e4" stroke-width="3" stroke-linecap="round" stroke-linejoin="round" opacity="0.16"/>
        <path d="M2804 145 V106 H2872 V145 Z" fill="url(#skylineFill)"/>
        <path d="M2888 145 V90 H2952 V145 Z" fill="url(#skylineFill)"/>
    </g>
    <path d="M0 1460 C390 1388 650 1394 1010 1458 C1350 1518 1590 1516 1940 1448 C2360 1366 2800 1370 3200 1448 L3200 1600 L0 1600 Z" fill="#020617" opacity="0.28"/>
    <path d="M1080 1508 C1320 1424 1538 1428 1780 1486 C2020 1540 2220 1518 2480 1440 C2730 1364 2960 1368 3200 1438 L3200 1600 L1080 1600 Z" fill="#042f2e" opacity="0.34"/>
    <circle cx="3020" cy="120" r="190" fill="#38bdf8" opacity="0.05"/>
    <circle cx="160" cy="8" r="150" fill="#ffffff" opacity="0.04"/>
</svg>
