<svg xmlns="http://www.w3.org/2000/svg" width="256" height="256" viewBox="0 0 256 256" role="img" aria-labelledby="title desc">
    <title id="title">Jakarta Data ControlDesk logo</title>
    <desc id="desc">A command desk shield with system tiles, task checkmark, document line, and support pulse.</desc>
    <defs>
        <linearGradient id="deskBase" x1="42" y1="26" x2="216" y2="232" gradientUnits="userSpaceOnUse">
            <stop offset="0" stop-color="#0f766e"/>
            <stop offset="0.48" stop-color="#0b5f88"/>
            <stop offset="1" stop-color="#172554"/>
        </linearGradient>
        <linearGradient id="screenGlow" x1="68" y1="54" x2="194" y2="173" gradientUnits="userSpaceOnUse">
            <stop offset="0" stop-color="#ecfeff"/>
            <stop offset="0.56" stop-color="#67e8f9"/>
            <stop offset="1" stop-color="#bef264"/>
        </linearGradient>
        <linearGradient id="accent" x1="64" y1="188" x2="196" y2="188" gradientUnits="userSpaceOnUse">
            <stop offset="0" stop-color="#f59e0b"/>
            <stop offset="1" stop-color="#22c55e"/>
        </linearGradient>
        <filter id="shadow" x="-20%" y="-20%" width="140%" height="140%">
            <feDropShadow dx="0" dy="12" stdDeviation="12" flood-color="#0f172a" flood-opacity="0.24"/>
        </filter>
    </defs>

    <rect width="256" height="256" rx="56" fill="#e0f2fe"/>
    <path d="M128 20 L212 50 C218 52 222 58 222 65 V127 C222 179 185 221 128 238 C71 221 34 179 34 127 V65 C34 58 38 52 44 50 Z" fill="url(#deskBase)" filter="url(#shadow)"/>
    <path d="M128 36 L197 60 C202 62 205 66 205 71 V126 C205 169 175 204 128 219 C81 204 51 169 51 126 V71 C51 66 54 62 59 60 Z" fill="#0f172a" opacity="0.18"/>

    <rect x="66" y="58" width="124" height="86" rx="14" fill="#082f49" stroke="#a7f3d0" stroke-opacity="0.58" stroke-width="4"/>
    <rect x="78" y="70" width="100" height="54" rx="8" fill="url(#screenGlow)" opacity="0.94"/>
    <path d="M88 108 H114 L124 88 L138 116 L150 100 H168" fill="none" stroke="#134e4a" stroke-linecap="round" stroke-linejoin="round" stroke-width="7"/>
    <path d="M88 88 H109" fill="none" stroke="#0f766e" stroke-linecap="round" stroke-width="6" opacity="0.8"/>
    <path d="M88 124 H130" fill="none" stroke="#0f766e" stroke-linecap="round" stroke-width="5" opacity="0.65"/>

    <rect x="78" y="156" width="34" height="34" rx="9" fill="#ecfeff" opacity="0.96"/>
    <path d="M87 174 L94 181 L104 166" fill="none" stroke="#15803d" stroke-linecap="round" stroke-linejoin="round" stroke-width="5"/>

    <rect x="122" y="156" width="34" height="34" rx="9" fill="#ecfeff" opacity="0.96"/>
    <path d="M132 167 H146 M132 177 H143" fill="none" stroke="#0b5f88" stroke-linecap="round" stroke-width="5"/>

    <rect x="166" y="156" width="34" height="34" rx="9" fill="#ecfeff" opacity="0.96"/>
    <circle cx="183" cy="173" r="8" fill="none" stroke="#b45309" stroke-width="5"/>
    <path d="M183 162 V157 M183 189 V184 M194 173 H199 M167 173 H172" stroke="#b45309" stroke-linecap="round" stroke-width="4"/>

    <path d="M65 205 C96 192 159 192 191 205" fill="none" stroke="url(#accent)" stroke-linecap="round" stroke-width="9"/>
    <circle cx="128" cy="205" r="6" fill="#fef3c7"/>
</svg>
