<svg xmlns="http://www.w3.org/2000/svg" width="3200" height="1600" viewBox="0 0 3200 1600" preserveAspectRatio="none">
    <defs>
        <linearGradient id="base" x1="0" y1="0" x2="1" y2="1">
            <stop offset="0" stop-color="#111827"/>
            <stop offset="0.5" stop-color="#3b1d32"/>
            <stop offset="1" stop-color="#78350f"/>
        </linearGradient>
        <radialGradient id="ember" cx="0.22" cy="0.08" r="0.48">
            <stop offset="0" stop-color="#f97316" stop-opacity="0.42"/>
            <stop offset="0.45" stop-color="#f59e0b" stop-opacity="0.18"/>
            <stop offset="1" stop-color="#ffffff" stop-opacity="0"/>
        </radialGradient>
        <radialGradient id="blue" cx="0.82" cy="0.16" r="0.5">
            <stop offset="0" stop-color="#38bdf8" stop-opacity="0.18"/>
            <stop offset="1" stop-color="#ffffff" stop-opacity="0"/>
        </radialGradient>
        <radialGradient id="titleGlow" cx="0.28" cy="0.08" r="0.46">
            <stop offset="0" stop-color="#38bdf8" stop-opacity="0.22"/>
            <stop offset="0.4" stop-color="#2dd4bf" stop-opacity="0.12"/>
            <stop offset="1" stop-color="#ffffff" stop-opacity="0"/>
        </radialGradient>
        <linearGradient id="headerWash" x1="0" y1="0" x2="1" y2="0">
            <stop offset="0" stop-color="#67e8f9" stop-opacity="0.12"/>
            <stop offset="1" stop-color="#ffffff" stop-opacity="0"/>
        </linearGradient>
        <linearGradient id="skylineFill" x1="0" y1="0" x2="1" y2="0">
            <stop offset="0" stop-color="#e0f2fe" stop-opacity="0.1"/>
            <stop offset="0.5" stop-color="#ccfbf1" stop-opacity="0.13"/>
            <stop offset="1" stop-color="#e0f2fe" stop-opacity="0.08"/>
        </linearGradient>
        <pattern id="softWaves" width="180" height="48" patternUnits="userSpaceOnUse">
            <path d="M-30 30 C18 8 58 8 106 30 C132 42 158 42 210 28" fill="none" stroke="#bae6fd" stroke-width="1.2" opacity="0.1"/>
        </pattern>
        <pattern id="groveTiles" width="190" height="90" patternUnits="userSpaceOnUse">
            <path d="M0 0 L95 34 L0 90 Z" fill="#ffffff" opacity="0.028"/>
            <path d="M95 34 L190 0 L190 90 Z" fill="#5eead4" opacity="0.03"/>
            <path d="M0 0 L95 34 L190 0" fill="none" stroke="#99f6e4" stroke-width="1.1" opacity="0.045"/>
        </pattern>
        <pattern id="constellation" width="160" height="160" patternUnits="userSpaceOnUse">
            <circle cx="28" cy="36" r="2" fill="#fed7aa" opacity="0.38"/>
            <circle cx="124" cy="48" r="1.7" fill="#bae6fd" opacity="0.36"/>
            <circle cx="80" cy="116" r="1.4" fill="#ffffff" opacity="0.28"/>
            <path d="M28 36 L80 116 L124 48" fill="none" stroke="#fed7aa" stroke-width="1" opacity="0.08"/>
        </pattern>
        <linearGradient id="copper" x1="0" y1="0" x2="1" y2="0">
            <stop offset="0" stop-color="#f97316" stop-opacity="0.18"/>
            <stop offset="0.58" stop-color="#ffffff" stop-opacity="0.05"/>
            <stop offset="1" stop-color="#38bdf8" stop-opacity="0.14"/>
        </linearGradient>
    </defs>
    <rect width="3200" height="1600" fill="url(#base)"/>
    <rect width="3200" height="1600" fill="url(#groveTiles)" opacity="0.72"/>
    <rect width="3200" height="1600" fill="url(#softWaves)" opacity="0.36"/>
    <rect width="3200" height="1600" fill="url(#constellation)" opacity="0.82"/>
    <ellipse cx="700" cy="120" rx="850" ry="350" fill="url(#ember)"/>
    <ellipse cx="2700" cy="240" rx="760" ry="440" fill="url(#blue)"/>
    <rect x="0" y="0" width="2100" height="230" fill="url(#headerWash)"/>
    <ellipse cx="820" cy="72" rx="880" ry="230" fill="url(#titleGlow)"/>
    <path d="M0 250 C430 114 820 140 1180 248 C1530 352 1900 344 2280 220 C2640 102 2940 112 3200 172 V0 H0 Z" fill="url(#copper)"/>
    <g opacity="0.75">
        <path d="M0 114 C340 64 666 62 990 108 C1308 154 1648 154 1988 96 C2360 34 2780 40 3200 94" fill="none" stroke="#bae6fd" stroke-linecap="round" stroke-width="5" opacity="0.12"/>
        <path d="M1840 145 H2988 V164 H1840 Z" fill="url(#skylineFill)"/>
        <path d="M1910 145 V98 H1978 V145 Z" fill="url(#skylineFill)"/>
        <path d="M1996 145 V84 H2070 V145 Z" fill="url(#skylineFill)"/>
        <path d="M2098 145 V64 C2130 44 2174 44 2206 64 V145 Z" fill="url(#skylineFill)"/>
        <path d="M2240 145 V74 H2308 V145 Z" fill="url(#skylineFill)"/>
        <path d="M2348 145 V92 H2410 V145 Z" fill="url(#skylineFill)"/>
        <path d="M2470 145 V76 C2470 38 2502 16 2538 16 C2574 16 2606 38 2606 76 V145 Z" fill="url(#skylineFill)"/>
        <path d="M2448 145 H2628 V158 H2448 Z" fill="url(#skylineFill)"/>
        <path d="M2460 76 C2478 28 2510 6 2538 0 C2566 6 2598 28 2616 76" fill="none" stroke="#99f6e4" stroke-width="3" stroke-linecap="round" opacity="0.16"/>
        <path d="M2668 145 V78 L2718 34 L2768 78 V145 Z" fill="url(#skylineFill)"/>
        <path d="M2706 34 L2718 8 L2730 34" fill="none" stroke="#99f6e4" stroke-width="3" stroke-linecap="round" stroke-linejoin="round" opacity="0.16"/>
        <path d="M2804 145 V106 H2872 V145 Z" fill="url(#skylineFill)"/>
        <path d="M2888 145 V90 H2952 V145 Z" fill="url(#skylineFill)"/>
    </g>
    <path d="M0 1370 C380 1278 740 1312 1080 1410 C1430 1510 1770 1508 2130 1392 C2520 1268 2860 1278 3200 1384 V1600 H0 Z" fill="#020617" opacity="0.36"/>
    <path d="M980 1510 C1280 1396 1600 1386 1910 1480 C2240 1578 2550 1542 2920 1418 C3030 1382 3120 1364 3200 1358 V1600 H980 Z" fill="#7c2d12" opacity="0.34"/>
    <g opacity="0.16" fill="none" stroke="#fed7aa" stroke-linecap="round">
        <path d="M240 420 C560 316 860 328 1160 424" stroke-width="5"/>
        <path d="M1800 356 C2110 258 2440 274 2760 376" stroke-width="5"/>
        <path d="M1440 1268 C1740 1180 2070 1190 2370 1280" stroke-width="6"/>
    </g>
    <circle cx="2960" cy="136" r="170" fill="#38bdf8" opacity="0.06"/>
    <circle cx="160" cy="1480" r="230" fill="#f97316" opacity="0.08"/>
</svg>
