<svg xmlns="http://www.w3.org/2000/svg" width="3200" height="1600" viewBox="0 0 3200 1600" preserveAspectRatio="none">
    <defs>
        <linearGradient id="base" x1="0" y1="0" x2="1" y2="1">
            <stop offset="0" stop-color="#140b14"/>
            <stop offset="0.48" stop-color="#3f1d2b"/>
            <stop offset="1" stop-color="#5f241d"/>
        </linearGradient>
        <radialGradient id="ember" cx="0.22" cy="0.08" r="0.48">
            <stop offset="0" stop-color="#fb7185" stop-opacity="0.28"/>
            <stop offset="0.48" stop-color="#f97316" stop-opacity="0.14"/>
            <stop offset="1" stop-color="#ffffff" stop-opacity="0"/>
        </radialGradient>
        <radialGradient id="maroonGlow" cx="0.86" cy="0.16" r="0.58">
            <stop offset="0" stop-color="#be123c" stop-opacity="0.22"/>
            <stop offset="0.48" stop-color="#7f1d1d" stop-opacity="0.12"/>
            <stop offset="1" stop-color="#ffffff" stop-opacity="0"/>
        </radialGradient>
        <radialGradient id="bottomGlow" cx="0.08" cy="0.96" r="0.72">
            <stop offset="0" stop-color="#9f1239" stop-opacity="0.28"/>
            <stop offset="0.48" stop-color="#7c2d12" stop-opacity="0.14"/>
            <stop offset="1" stop-color="#ffffff" stop-opacity="0"/>
        </radialGradient>
        <radialGradient id="titleGlow" cx="0.28" cy="0.08" r="0.46">
            <stop offset="0" stop-color="#fed7aa" stop-opacity="0.2"/>
            <stop offset="0.4" stop-color="#fb7185" stop-opacity="0.11"/>
            <stop offset="1" stop-color="#ffffff" stop-opacity="0"/>
        </radialGradient>
        <linearGradient id="headerWash" x1="0" y1="0" x2="0" y2="1">
            <stop offset="0" stop-color="#67e8f9" stop-opacity="0.1"/>
            <stop offset="0.44" stop-color="#f97316" stop-opacity="0.06"/>
            <stop offset="1" stop-color="#ffffff" stop-opacity="0"/>
        </linearGradient>
        <linearGradient id="skylineFill" x1="0" y1="0" x2="1" y2="0">
            <stop offset="0" stop-color="#fed7aa" stop-opacity="0.1"/>
            <stop offset="0.5" stop-color="#fecdd3" stop-opacity="0.13"/>
            <stop offset="1" stop-color="#fed7aa" stop-opacity="0.08"/>
        </linearGradient>
        <pattern id="softWaves" width="180" height="48" patternUnits="userSpaceOnUse">
            <path d="M-30 30 C18 8 58 8 106 30 C132 42 158 42 210 28" fill="none" stroke="#fed7aa" stroke-width="1.2" opacity="0.1"/>
        </pattern>
        <pattern id="groveTiles" width="190" height="90" patternUnits="userSpaceOnUse">
            <path d="M10 12 L96 40 L10 78 Z" fill="none" stroke="#fed7aa" stroke-width="1.15" opacity="0.075"/>
            <path d="M96 40 L180 14 L180 78 Z" fill="none" stroke="#fb7185" stroke-width="1.05" opacity="0.06"/>
            <path d="M28 68 C58 44 86 40 116 54 C136 64 154 64 176 54" fill="none" stroke="#f97316" stroke-width="1" opacity="0.055"/>
        </pattern>
        <pattern id="constellation" width="160" height="160" patternUnits="userSpaceOnUse">
            <circle cx="28" cy="36" r="2" fill="#fed7aa" opacity="0.38"/>
            <circle cx="124" cy="48" r="1.7" fill="#bae6fd" opacity="0.36"/>
            <circle cx="80" cy="116" r="1.4" fill="#ffffff" opacity="0.28"/>
            <path d="M28 36 L80 116 L124 48" fill="none" stroke="#fed7aa" stroke-width="1" opacity="0.08"/>
        </pattern>
        <radialGradient id="copper" cx="0.34" cy="0.02" r="0.78">
            <stop offset="0" stop-color="#fb7185" stop-opacity="0.18"/>
            <stop offset="0.38" stop-color="#7f1d1d" stop-opacity="0.13"/>
            <stop offset="0.72" stop-color="#f97316" stop-opacity="0.08"/>
            <stop offset="1" stop-color="#ffffff" stop-opacity="0"/>
        </radialGradient>
    </defs>
    <rect width="3200" height="1600" fill="url(#base)"/>
    <rect width="3200" height="1600" fill="url(#groveTiles)" opacity="0.72"/>
    <rect width="3200" height="1600" fill="url(#softWaves)" opacity="0.36"/>
    <rect width="3200" height="1600" fill="url(#constellation)" opacity="0.82"/>
    <ellipse cx="700" cy="120" rx="850" ry="350" fill="url(#ember)"/>
    <ellipse cx="2700" cy="240" rx="760" ry="440" fill="url(#maroonGlow)"/>
    <ellipse cx="310" cy="1430" rx="980" ry="520" fill="url(#bottomGlow)"/>
    <rect x="0" y="0" width="3200" height="430" fill="url(#headerWash)"/>
    <ellipse cx="820" cy="72" rx="880" ry="230" fill="url(#titleGlow)"/>
    <ellipse cx="1080" cy="30" rx="1900" ry="520" fill="url(#copper)"/>
    <g opacity="0.75">
        <path d="M0 114 C340 64 666 62 990 108 C1308 154 1648 154 1988 96 C2360 34 2780 40 3200 94" fill="none" stroke="#fed7aa" stroke-linecap="round" stroke-width="5" opacity="0.12"/>
        <path d="M1840 145 H2988 V164 H1840 Z" fill="url(#skylineFill)"/>
        <path d="M1910 145 V98 H1978 V145 Z" fill="url(#skylineFill)"/>
        <path d="M1996 145 V84 H2070 V145 Z" fill="url(#skylineFill)"/>
        <path d="M2098 145 V64 C2130 44 2174 44 2206 64 V145 Z" fill="url(#skylineFill)"/>
        <path d="M2240 145 V74 H2308 V145 Z" fill="url(#skylineFill)"/>
        <path d="M2348 145 V92 H2410 V145 Z" fill="url(#skylineFill)"/>
        <path d="M2470 145 V76 C2470 38 2502 16 2538 16 C2574 16 2606 38 2606 76 V145 Z" fill="url(#skylineFill)"/>
        <path d="M2448 145 H2628 V158 H2448 Z" fill="url(#skylineFill)"/>
        <path d="M2460 76 C2478 28 2510 6 2538 0 C2566 6 2598 28 2616 76" fill="none" stroke="#fed7aa" stroke-width="3" stroke-linecap="round" opacity="0.16"/>
        <path d="M2668 145 V78 L2718 34 L2768 78 V145 Z" fill="url(#skylineFill)"/>
        <path d="M2706 34 L2718 8 L2730 34" fill="none" stroke="#fed7aa" stroke-width="3" stroke-linecap="round" stroke-linejoin="round" opacity="0.16"/>
        <path d="M2804 145 V106 H2872 V145 Z" fill="url(#skylineFill)"/>
        <path d="M2888 145 V90 H2952 V145 Z" fill="url(#skylineFill)"/>
    </g>
    <path d="M0 1408 C380 1324 740 1348 1080 1422 C1430 1498 1770 1498 2130 1410 C2520 1314 2860 1318 3200 1404 V1600 H0 Z" fill="#120914" opacity="0.24"/>
    <path d="M760 1522 C1120 1410 1510 1406 1900 1480 C2260 1548 2580 1526 2940 1438 C3050 1412 3130 1400 3200 1396 V1600 H760 Z" fill="#7f1d1d" opacity="0.2"/>
    <circle cx="2960" cy="136" r="170" fill="#fed7aa" opacity="0.045"/>
</svg>
